<svg xmlns="http://www.w3.org/2000/svg" xmlns:xlink="http://www.w3.org/1999/xlink" width="500" zoomAndPan="magnify" viewBox="0 0 375 149.999998" height="200" preserveAspectRatio="xMidYMid meet" version="1.0">
  <defs>
    <g />
    <clipPath id="a36bd7ab9c">
      <path d="M 0 19.828125 L 22 19.828125 L 22 41 L 0 41 Z M 0 19.828125 " clip-rule="nonzero" />
    </clipPath>
    <clipPath id="61f880f174">
      <path d="M 93 19.828125 L 114.75 19.828125 L 114.75 41 L 93 41 Z M 93 19.828125 " clip-rule="nonzero" />
    </clipPath>
    <clipPath id="acb308ff12">
      <path d="M 93 113 L 114.75 113 L 114.75 134.578125 L 93 134.578125 Z M 93 113 " clip-rule="nonzero" />
    </clipPath>
    <clipPath id="b814d2b40f">
      <path d="M 0 113 L 22 113 L 22 134.578125 L 0 134.578125 Z M 0 113 " clip-rule="nonzero" />
    </clipPath>
    <clipPath id="a3bd5bb94a">
      <path d="M 17 19.828125 L 98 19.828125 L 98 134.578125 L 17 134.578125 Z M 17 19.828125 " clip-rule="nonzero" />
    </clipPath>
    <clipPath id="c431fc1b01">
      <path d="M 2.511719 22.335938 L 23 22.335938 L 23 43 L 2.511719 43 Z M 2.511719 22.335938 " clip-rule="nonzero" />
    </clipPath>
    <clipPath id="66a57cd7df">
      <path d="M 91 22.335938 L 112.011719 22.335938 L 112.011719 43 L 91 43 Z M 91 22.335938 " clip-rule="nonzero" />
    </clipPath>
    <clipPath id="85dfcf9c73">
      <path d="M 91 111 L 112.011719 111 L 112.011719 131.835938 L 91 131.835938 Z M 91 111 " clip-rule="nonzero" />
    </clipPath>
    <clipPath id="dc237f0e76">
      <path d="M 2.511719 111 L 23 111 L 23 131.835938 L 2.511719 131.835938 Z M 2.511719 111 " clip-rule="nonzero" />
    </clipPath>
    <clipPath id="df92e9d0c8">
      <path d="M 18 22.335938 L 96 22.335938 L 96 131.835938 L 18 131.835938 Z M 18 22.335938 " clip-rule="nonzero" />
    </clipPath>
  </defs>
  <g clip-path="url(#a36bd7ab9c)">
    <path fill="#0d0d0d" d="M 3.824219 23.652344 L 21.039062 23.652344 L 21.039062 19.828125 L 1.914062 19.828125 C 0.855469 19.828125 0 20.683594 0 21.738281 L 0 40.863281 L 3.824219 40.863281 L 3.824219 23.652344 " fill-opacity="1" fill-rule="nonzero" />
  </g>
  <g clip-path="url(#61f880f174)">
    <path fill="#0d0d0d" d="M 110.925781 40.863281 L 114.75 40.863281 L 114.75 21.738281 C 114.75 20.683594 113.894531 19.828125 112.835938 19.828125 L 93.710938 19.828125 L 93.710938 23.652344 L 110.925781 23.652344 L 110.925781 40.863281 " fill-opacity="1" fill-rule="nonzero" />
  </g>
  <g clip-path="url(#acb308ff12)">
    <path fill="#0d0d0d" d="M 110.925781 130.75 L 93.710938 130.75 L 93.710938 134.578125 L 112.835938 134.578125 C 113.894531 134.578125 114.75 133.71875 114.75 132.664062 L 114.75 113.539062 L 110.925781 113.539062 L 110.925781 130.75 " fill-opacity="1" fill-rule="nonzero" />
  </g>
  <g clip-path="url(#b814d2b40f)">
    <path fill="#0d0d0d" d="M 1.914062 134.578125 L 21.039062 134.578125 L 21.039062 130.75 L 3.824219 130.75 L 3.824219 113.539062 L 0 113.539062 L 0 132.664062 C 0 133.71875 0.855469 134.578125 1.914062 134.578125 " fill-opacity="1" fill-rule="nonzero" />
  </g>
  <g clip-path="url(#a3bd5bb94a)">
    <path fill="#0d0d0d" d="M 93.710938 86.765625 C 93.710938 89.808594 91.898438 92.519531 89.214844 93.734375 L 89.867188 83.308594 L 92.496094 75.421875 C 93.207031 75.703125 93.710938 76.394531 93.710938 77.203125 Z M 78.507812 117.34375 L 66.296875 127.523438 C 64.652344 128.890625 62.722656 129.851562 60.667969 130.351562 L 70.394531 110.898438 L 85.128906 97.800781 L 84.667969 105.195312 C 84.375 109.898438 82.128906 114.328125 78.507812 117.34375 Z M 36.242188 117.34375 C 32.621094 114.328125 30.375 109.898438 30.082031 105.195312 L 29.621094 97.800781 L 44.355469 110.898438 L 54.082031 130.351562 C 52.027344 129.851562 50.097656 128.890625 48.453125 127.523438 Z M 21.039062 86.765625 L 21.039062 77.203125 C 21.039062 76.394531 21.542969 75.703125 22.253906 75.421875 L 24.882812 83.308594 L 25.535156 93.734375 C 22.851562 92.519531 21.039062 89.808594 21.039062 86.765625 Z M 82.371094 77.285156 L 84.898438 71.386719 L 86.058594 82.976562 L 85.773438 87.5 Z M 68.546875 107.425781 L 63.765625 105.035156 L 66.308594 99.949219 L 79.695312 97.515625 Z M 48.441406 99.949219 L 50.984375 105.035156 L 46.203125 107.425781 L 35.054688 97.515625 Z M 28.691406 82.976562 L 29.851562 71.386719 L 32.378906 77.285156 L 28.976562 87.5 Z M 72.40625 65.726562 L 42.34375 65.726562 L 30.75 62.414062 L 31.125 58.65625 C 31.8125 51.785156 37.539062 46.601562 44.445312 46.601562 L 70.304688 46.601562 C 77.210938 46.601562 82.9375 51.785156 83.625 58.65625 L 84 62.414062 Z M 79.542969 74.171875 L 79.191406 73.894531 C 77.171875 72.328125 74.519531 71.464844 71.71875 71.464844 C 71.664062 71.464844 71.609375 71.46875 71.550781 71.46875 L 73.675781 69.339844 L 82.71875 66.757812 Z M 66.742188 95.984375 L 65.402344 81.289062 C 67.230469 82.359375 69.425781 82.9375 71.71875 82.9375 C 74.519531 82.9375 77.171875 82.074219 79.191406 80.507812 L 79.363281 80.371094 L 83.550781 92.925781 Z M 59.773438 104.464844 L 57.375 105.664062 L 54.976562 104.464844 L 52.820312 100.152344 L 61.929688 100.152344 Z M 53.550781 108.027344 L 56.519531 109.511719 C 57.058594 109.78125 57.691406 109.78125 58.230469 109.511719 L 61.199219 108.027344 L 65.226562 110.042969 L 60.5625 113.539062 L 54.1875 113.539062 L 49.523438 110.042969 Z M 35.386719 80.371094 L 35.5625 80.507812 C 37.578125 82.074219 40.230469 82.9375 43.03125 82.9375 C 45.324219 82.9375 47.519531 82.359375 49.347656 81.289062 L 48.007812 95.984375 L 31.199219 92.925781 Z M 41.074219 69.339844 L 43.199219 71.46875 C 43.140625 71.46875 43.085938 71.464844 43.03125 71.464844 C 40.230469 71.464844 37.578125 72.328125 35.5625 73.894531 L 35.207031 74.171875 L 32.03125 66.757812 Z M 62.320312 75.289062 L 52.429688 75.289062 L 46.691406 69.550781 L 68.058594 69.550781 Z M 53.382812 79.113281 L 61.367188 79.113281 L 62.929688 96.328125 L 51.820312 96.328125 Z M 48.523438 77.203125 L 48.152344 77.488281 C 46.824219 78.519531 44.957031 79.113281 43.03125 79.113281 C 41.105469 79.113281 39.238281 78.519531 37.910156 77.488281 L 37.539062 77.203125 L 37.910156 76.914062 C 39.238281 75.882812 41.105469 75.289062 43.03125 75.289062 C 44.957031 75.289062 46.824219 75.882812 48.152344 76.914062 Z M 66.597656 76.914062 C 67.925781 75.882812 69.792969 75.289062 71.71875 75.289062 C 73.644531 75.289062 75.511719 75.882812 76.839844 76.914062 L 77.210938 77.203125 L 76.839844 77.488281 C 75.511719 78.519531 73.644531 79.113281 71.71875 79.113281 C 69.792969 79.113281 67.925781 78.519531 66.597656 77.488281 L 66.226562 77.203125 Z M 51.234375 116.105469 L 52.402344 116.980469 C 52.734375 117.230469 53.136719 117.363281 53.550781 117.363281 L 61.199219 117.363281 C 61.613281 117.363281 62.015625 117.230469 62.347656 116.980469 L 63.515625 116.105469 L 57.375 128.386719 Z M 57.375 23.652344 C 76.355469 23.652344 91.800781 39.09375 91.800781 58.078125 C 91.800781 62.945312 91.019531 67.757812 89.480469 72.378906 L 88.988281 73.851562 L 87.429688 58.277344 C 86.546875 49.441406 79.183594 42.777344 70.304688 42.777344 L 44.445312 42.777344 C 35.566406 42.777344 28.203125 49.441406 27.320312 58.277344 L 25.761719 73.851562 L 25.269531 72.378906 C 23.730469 67.757812 22.949219 62.945312 22.949219 58.078125 C 22.949219 39.09375 38.394531 23.652344 57.375 23.652344 Z M 93.671875 71.777344 C 94.96875 67.328125 95.625 62.726562 95.625 58.078125 C 95.625 36.984375 78.464844 19.828125 57.375 19.828125 C 36.285156 19.828125 19.125 36.984375 19.125 58.078125 C 19.125 62.726562 19.78125 67.328125 21.078125 71.777344 C 18.832031 72.558594 17.210938 74.695312 17.210938 77.203125 L 17.210938 86.765625 C 17.210938 91.992188 20.785156 96.566406 25.792969 97.867188 L 26.265625 105.433594 C 26.625 111.183594 29.367188 116.597656 33.792969 120.285156 L 46.003906 130.460938 C 49.191406 133.117188 53.230469 134.578125 57.375 134.578125 C 61.519531 134.578125 65.558594 133.117188 68.746094 130.460938 L 80.957031 120.285156 C 85.382812 116.597656 88.125 111.183594 88.484375 105.433594 L 88.957031 97.867188 C 93.964844 96.566406 97.539062 91.992188 97.539062 86.765625 L 97.539062 77.203125 C 97.539062 74.695312 95.917969 72.558594 93.671875 71.777344 " fill-opacity="1" fill-rule="nonzero" />
  </g>
  <g clip-path="url(#c431fc1b01)">
    <path fill="#ffffff" d="M 6.160156 25.988281 L 22.585938 25.988281 L 22.585938 22.335938 L 4.335938 22.335938 C 3.328125 22.335938 2.511719 23.15625 2.511719 24.164062 L 2.511719 42.414062 L 6.160156 42.414062 L 6.160156 25.988281 " fill-opacity="1" fill-rule="nonzero" />
  </g>
  <g clip-path="url(#66a57cd7df)">
    <path fill="#ffffff" d="M 108.359375 42.414062 L 112.011719 42.414062 L 112.011719 24.164062 C 112.011719 23.15625 111.195312 22.335938 110.1875 22.335938 L 91.9375 22.335938 L 91.9375 25.988281 L 108.359375 25.988281 L 108.359375 42.414062 " fill-opacity="1" fill-rule="nonzero" />
  </g>
  <g clip-path="url(#85dfcf9c73)">
    <path fill="#ffffff" d="M 108.359375 128.1875 L 91.9375 128.1875 L 91.9375 131.835938 L 110.1875 131.835938 C 111.195312 131.835938 112.011719 131.019531 112.011719 130.011719 L 112.011719 111.761719 L 108.359375 111.761719 L 108.359375 128.1875 " fill-opacity="1" fill-rule="nonzero" />
  </g>
  <g clip-path="url(#dc237f0e76)">
    <path fill="#ffffff" d="M 4.335938 131.835938 L 22.585938 131.835938 L 22.585938 128.1875 L 6.160156 128.1875 L 6.160156 111.761719 L 2.511719 111.761719 L 2.511719 130.011719 C 2.511719 131.019531 3.328125 131.835938 4.335938 131.835938 " fill-opacity="1" fill-rule="nonzero" />
  </g>
  <g clip-path="url(#df92e9d0c8)">
    <path fill="#ffffff" d="M 91.9375 86.210938 C 91.9375 89.117188 90.203125 91.703125 87.644531 92.863281 L 88.265625 82.914062 L 90.777344 75.390625 C 91.453125 75.65625 91.9375 76.316406 91.9375 77.085938 Z M 77.425781 115.394531 L 65.773438 125.105469 C 64.207031 126.410156 62.363281 127.328125 60.40625 127.804688 L 69.683594 109.242188 L 83.746094 96.746094 L 83.304688 103.800781 C 83.023438 108.289062 80.882812 112.515625 77.425781 115.394531 Z M 37.09375 115.394531 C 33.640625 112.515625 31.496094 108.289062 31.21875 103.800781 L 30.777344 96.746094 L 44.835938 109.242188 L 54.117188 127.804688 C 52.15625 127.328125 50.3125 126.410156 48.746094 125.105469 Z M 22.585938 86.210938 L 22.585938 77.085938 C 22.585938 76.316406 23.066406 75.65625 23.746094 75.390625 L 26.253906 82.914062 L 26.875 92.863281 C 24.316406 91.703125 22.585938 89.117188 22.585938 86.210938 Z M 81.109375 77.167969 L 83.523438 71.539062 L 84.628906 82.597656 L 84.359375 86.914062 Z M 67.921875 105.925781 L 63.359375 103.644531 L 65.785156 98.796875 L 78.558594 96.472656 Z M 48.734375 98.796875 L 51.160156 103.644531 L 46.597656 105.925781 L 35.960938 96.472656 Z M 29.890625 82.597656 L 30.996094 71.539062 L 33.410156 77.167969 L 30.160156 86.914062 Z M 71.605469 66.136719 L 42.917969 66.136719 L 31.851562 62.976562 L 32.210938 59.390625 C 32.867188 52.832031 38.332031 47.886719 44.921875 47.886719 L 69.597656 47.886719 C 76.1875 47.886719 81.652344 52.832031 82.308594 59.390625 L 82.667969 62.976562 Z M 78.414062 74.195312 L 78.078125 73.933594 C 76.152344 72.4375 73.621094 71.613281 70.949219 71.613281 C 70.894531 71.613281 70.84375 71.613281 70.789062 71.617188 L 72.816406 69.585938 L 81.445312 67.121094 Z M 66.199219 95.007812 L 64.921875 80.988281 C 66.664062 82.007812 68.757812 82.5625 70.949219 82.5625 C 73.621094 82.5625 76.152344 81.738281 78.078125 80.242188 L 78.246094 80.113281 L 82.238281 92.09375 Z M 59.550781 103.101562 L 57.261719 104.246094 L 54.972656 103.101562 L 52.914062 98.988281 L 61.609375 98.988281 Z M 53.609375 106.503906 L 56.445312 107.921875 C 56.957031 108.175781 57.5625 108.175781 58.078125 107.921875 L 60.910156 106.503906 L 64.753906 108.425781 L 60.300781 111.761719 L 54.21875 111.761719 L 49.769531 108.425781 Z M 36.277344 80.113281 L 36.445312 80.242188 C 38.367188 81.738281 40.898438 82.5625 43.574219 82.5625 C 45.761719 82.5625 47.855469 82.007812 49.597656 80.988281 L 48.324219 95.007812 L 32.28125 92.09375 Z M 41.703125 69.585938 L 43.734375 71.617188 C 43.679688 71.613281 43.625 71.613281 43.574219 71.613281 C 40.898438 71.613281 38.367188 72.4375 36.445312 73.933594 L 36.105469 74.195312 L 33.074219 67.121094 Z M 61.980469 75.261719 L 52.542969 75.261719 L 47.066406 69.789062 L 67.453125 69.789062 Z M 53.453125 78.914062 L 61.070312 78.914062 L 62.5625 95.335938 L 51.960938 95.335938 Z M 48.8125 77.085938 L 48.460938 77.359375 C 47.195312 78.347656 45.414062 78.914062 43.574219 78.914062 C 41.734375 78.914062 39.953125 78.347656 38.683594 77.359375 L 38.332031 77.085938 L 38.683594 76.8125 C 39.953125 75.828125 41.734375 75.261719 43.574219 75.261719 C 45.414062 75.261719 47.195312 75.828125 48.460938 76.8125 Z M 66.058594 76.8125 C 67.328125 75.828125 69.109375 75.261719 70.949219 75.261719 C 72.789062 75.261719 74.570312 75.828125 75.835938 76.8125 L 76.1875 77.085938 L 75.835938 77.359375 C 74.570312 78.347656 72.789062 78.914062 70.949219 78.914062 C 69.109375 78.914062 67.328125 78.347656 66.058594 77.359375 L 65.707031 77.085938 Z M 51.402344 114.210938 L 52.515625 115.046875 C 52.832031 115.285156 53.214844 115.414062 53.609375 115.414062 L 60.910156 115.414062 C 61.304688 115.414062 61.691406 115.285156 62.003906 115.046875 L 63.121094 114.210938 L 57.261719 125.929688 Z M 57.261719 25.988281 C 75.375 25.988281 90.109375 40.722656 90.109375 58.835938 C 90.109375 63.484375 89.367188 68.078125 87.894531 72.484375 L 87.425781 73.890625 L 85.941406 59.027344 C 85.097656 50.597656 78.070312 44.238281 69.597656 44.238281 L 44.921875 44.238281 C 36.449219 44.238281 29.421875 50.597656 28.582031 59.027344 L 27.09375 73.890625 L 26.625 72.484375 C 25.15625 68.078125 24.410156 63.484375 24.410156 58.835938 C 24.410156 40.722656 39.148438 25.988281 57.261719 25.988281 Z M 91.894531 71.914062 C 93.132812 67.664062 93.761719 63.273438 93.761719 58.835938 C 93.761719 38.710938 77.386719 22.335938 57.261719 22.335938 C 37.136719 22.335938 20.761719 38.710938 20.761719 58.835938 C 20.761719 63.273438 21.386719 67.664062 22.625 71.914062 C 20.480469 72.65625 18.9375 74.695312 18.9375 77.085938 L 18.9375 86.210938 C 18.9375 91.203125 22.34375 95.566406 27.121094 96.808594 L 27.574219 104.027344 C 27.917969 109.515625 30.535156 114.679688 34.757812 118.199219 L 46.410156 127.910156 C 49.449219 130.441406 53.304688 131.835938 57.261719 131.835938 C 61.21875 131.835938 65.070312 130.441406 68.109375 127.910156 L 79.761719 118.199219 C 83.984375 114.679688 86.605469 109.515625 86.945312 104.027344 L 87.398438 96.808594 C 92.175781 95.566406 95.585938 91.203125 95.585938 86.210938 L 95.585938 77.085938 C 95.585938 74.695312 94.042969 72.65625 91.894531 71.914062 " fill-opacity="1" fill-rule="nonzero" />
  </g>
  <g fill="#ffffff" fill-opacity="1">
    <g transform="translate(116.886208, 94.982823)">
      <g>
        <path d="M 9.84375 0 C 9.132812 0 8.515625 -0.265625 7.984375 -0.796875 C 7.453125 -1.328125 7.1875 -1.941406 7.1875 -2.640625 L 7.1875 -71.296875 C 7.1875 -72.066406 7.429688 -72.71875 7.921875 -73.25 C 8.421875 -73.78125 9.0625 -74.046875 9.84375 -74.046875 L 59.03125 -74.046875 C 59.800781 -74.046875 60.453125 -73.78125 60.984375 -73.25 C 61.515625 -72.71875 61.78125 -72.066406 61.78125 -71.296875 L 61.78125 -60.078125 C 61.78125 -59.304688 61.515625 -58.671875 60.984375 -58.171875 C 60.453125 -57.679688 59.800781 -57.4375 59.03125 -57.4375 L 26.65625 -57.4375 L 26.65625 -42.734375 L 56.90625 -42.734375 C 57.6875 -42.734375 58.335938 -42.46875 58.859375 -41.9375 C 59.390625 -41.414062 59.65625 -40.765625 59.65625 -39.984375 L 59.65625 -28.765625 C 59.65625 -27.992188 59.390625 -27.359375 58.859375 -26.859375 C 58.335938 -26.367188 57.6875 -26.125 56.90625 -26.125 L 26.65625 -26.125 L 26.65625 -2.640625 C 26.65625 -1.941406 26.40625 -1.328125 25.90625 -0.796875 C 25.414062 -0.265625 24.785156 0 24.015625 0 Z M 9.84375 0 " />
      </g>
    </g>
  </g>
  <g fill="#ffffff" fill-opacity="1">
    <g transform="translate(174.644226, 94.982823)">
      <g>
        <path d="M 3.0625 0 C 2.5 0 1.988281 -0.226562 1.53125 -0.6875 C 1.070312 -1.144531 0.84375 -1.65625 0.84375 -2.21875 C 0.84375 -2.644531 0.878906 -2.960938 0.953125 -3.171875 L 25.59375 -70.984375 C 26.300781 -73.023438 27.710938 -74.046875 29.828125 -74.046875 L 46.328125 -74.046875 C 48.441406 -74.046875 49.851562 -73.023438 50.5625 -70.984375 L 75.203125 -3.171875 C 75.273438 -2.960938 75.3125 -2.644531 75.3125 -2.21875 C 75.3125 -1.65625 75.082031 -1.144531 74.625 -0.6875 C 74.164062 -0.226562 73.65625 0 73.09375 0 L 59.34375 0 C 57.644531 0 56.445312 -0.773438 55.75 -2.328125 L 51.9375 -12.59375 L 24.21875 -12.59375 L 20.421875 -2.328125 C 19.710938 -0.773438 18.507812 0 16.8125 0 Z M 28.671875 -28.453125 L 47.5 -28.453125 L 38.078125 -55.421875 Z M 28.671875 -28.453125 " />
      </g>
    </g>
  </g>
  <g fill="#ffffff" fill-opacity="1">
    <g transform="translate(242.874962, 94.982823)">
      <g>
        <path d="M 37.875 1.0625 C 27.789062 1.0625 19.875 -1.367188 14.125 -6.234375 C 8.375 -11.109375 5.320312 -18.234375 4.96875 -27.609375 C 4.894531 -29.515625 4.859375 -32.617188 4.859375 -36.921875 C 4.859375 -41.285156 4.894531 -44.457031 4.96875 -46.4375 C 5.320312 -55.601562 8.40625 -62.671875 14.21875 -67.640625 C 20.039062 -72.617188 27.925781 -75.109375 37.875 -75.109375 C 44.144531 -75.109375 49.765625 -74.082031 54.734375 -72.03125 C 59.710938 -69.988281 63.644531 -67.023438 66.53125 -63.140625 C 69.425781 -59.265625 70.941406 -54.6875 71.078125 -49.40625 C 71.078125 -48.769531 70.847656 -48.238281 70.390625 -47.8125 C 69.929688 -47.382812 69.390625 -47.171875 68.765625 -47.171875 L 53.734375 -47.171875 C 52.742188 -47.171875 52.019531 -47.363281 51.5625 -47.75 C 51.101562 -48.144531 50.703125 -48.867188 50.359375 -49.921875 C 49.367188 -53.378906 47.867188 -55.796875 45.859375 -57.171875 C 43.847656 -58.546875 41.1875 -59.234375 37.875 -59.234375 C 29.90625 -59.234375 25.78125 -54.789062 25.5 -45.90625 C 25.425781 -44 25.390625 -41.070312 25.390625 -37.125 C 25.390625 -33.175781 25.425781 -30.179688 25.5 -28.140625 C 25.78125 -19.253906 29.90625 -14.8125 37.875 -14.8125 C 41.113281 -14.8125 43.773438 -15.515625 45.859375 -16.921875 C 47.941406 -18.335938 49.441406 -20.738281 50.359375 -24.125 C 50.640625 -25.175781 51.023438 -25.894531 51.515625 -26.28125 C 52.003906 -26.675781 52.742188 -26.875 53.734375 -26.875 L 68.765625 -26.875 C 69.390625 -26.875 69.929688 -26.660156 70.390625 -26.234375 C 70.847656 -25.804688 71.078125 -25.273438 71.078125 -24.640625 C 70.941406 -19.359375 69.425781 -14.773438 66.53125 -10.890625 C 63.644531 -7.015625 59.710938 -4.050781 54.734375 -2 C 49.765625 0.0390625 44.144531 1.0625 37.875 1.0625 Z M 37.875 1.0625 " />
      </g>
    </g>
  </g>
  <g fill="#ffffff" fill-opacity="1">
    <g transform="translate(309.624706, 94.982823)">
      <g>
        <path d="M 9.84375 0 C 9.132812 0 8.515625 -0.265625 7.984375 -0.796875 C 7.453125 -1.328125 7.1875 -1.941406 7.1875 -2.640625 L 7.1875 -71.296875 C 7.1875 -72.066406 7.429688 -72.71875 7.921875 -73.25 C 8.421875 -73.78125 9.0625 -74.046875 9.84375 -74.046875 L 59.765625 -74.046875 C 60.546875 -74.046875 61.195312 -73.78125 61.71875 -73.25 C 62.25 -72.71875 62.515625 -72.066406 62.515625 -71.296875 L 62.515625 -60.828125 C 62.515625 -60.046875 62.25 -59.410156 61.71875 -58.921875 C 61.195312 -58.429688 60.546875 -58.1875 59.765625 -58.1875 L 26.34375 -58.1875 L 26.34375 -44.75 L 57.4375 -44.75 C 58.21875 -44.75 58.867188 -44.484375 59.390625 -43.953125 C 59.921875 -43.421875 60.1875 -42.769531 60.1875 -42 L 60.1875 -32.375 C 60.1875 -31.59375 59.921875 -30.9375 59.390625 -30.40625 C 58.867188 -29.882812 58.21875 -29.625 57.4375 -29.625 L 26.34375 -29.625 L 26.34375 -15.875 L 60.609375 -15.875 C 61.390625 -15.875 62.039062 -15.609375 62.5625 -15.078125 C 63.09375 -14.546875 63.359375 -13.890625 63.359375 -13.109375 L 63.359375 -2.640625 C 63.359375 -1.867188 63.09375 -1.234375 62.5625 -0.734375 C 62.039062 -0.242188 61.390625 0 60.609375 0 Z M 9.84375 0 " />
      </g>
    </g>
  </g>
  <path stroke-linecap="butt" transform="matrix(0.75, 0, 0, 0.75, 115.45652, 8.732828)" fill="none" stroke-linejoin="miter" d="M 15.026724 115.00207 C 14.084015 115.00207 13.261099 114.653111 12.547557 113.965611 C 11.860057 113.257278 11.516307 112.429153 11.516307 111.486445 L 11.516307 19.923939 C 11.516307 18.887481 11.834015 18.028106 12.479849 17.340606 C 13.141307 16.627064 13.995474 16.272897 15.026724 16.272897 L 80.625686 16.272897 C 81.662144 16.272897 82.521519 16.627064 83.209019 17.340606 C 83.922561 18.028106 84.276728 18.887481 84.276728 19.923939 L 84.276728 34.866648 C 84.276728 35.92394 83.922561 36.783315 83.209019 37.449982 C 82.521519 38.090607 81.662144 38.413524 80.625686 38.413524 L 37.443392 38.413524 L 37.443392 58.007275 L 77.802769 58.007275 C 78.834019 58.007275 79.698602 58.36665 80.386103 59.074983 C 81.099644 59.788525 81.453811 60.658317 81.453811 61.694775 L 81.453811 76.637484 C 81.453811 77.673943 81.099644 78.522901 80.386103 79.184359 C 79.698602 79.830193 78.834019 80.153109 77.802769 80.153109 L 37.443392 80.153109 L 37.443392 111.486445 C 37.443392 112.429153 37.110058 113.257278 36.443392 113.965611 C 35.802767 114.653111 34.964225 115.00207 33.932975 115.00207 Z M 83.016311 115.00207 C 82.255894 115.00207 81.568394 114.699986 80.948603 114.106236 C 80.349644 113.486445 80.052769 112.793736 80.052769 112.038528 C 80.052769 111.465611 80.099644 111.038528 80.193394 110.762486 L 113.042354 20.371856 C 113.985063 17.637481 115.865271 16.272897 118.688188 16.272897 L 140.693398 16.272897 C 143.521523 16.272897 145.401731 17.637481 146.34444 20.371856 L 179.1934 110.762486 C 179.28715 111.038528 179.334025 111.465611 179.334025 112.038528 C 179.334025 112.793736 179.021525 113.486445 178.401733 114.106236 C 177.807983 114.699986 177.1309 115.00207 176.370483 115.00207 L 158.052774 115.00207 C 155.802774 115.00207 154.203815 113.965611 153.266315 111.903111 L 148.167356 98.231235 L 111.219438 98.231235 L 106.156937 111.903111 C 105.214229 113.965611 103.610062 115.00207 101.33402 115.00207 Z M 117.141313 77.048943 L 142.245481 77.048943 L 129.709022 41.101024 Z M 220.375694 116.413528 C 206.943402 116.413528 196.396526 113.173945 188.729859 106.699986 C 181.057983 100.205194 176.995483 90.699985 176.53715 78.189568 C 176.422566 75.637484 176.365275 71.496859 176.365275 65.757275 C 176.365275 59.949983 176.422566 55.726025 176.53715 53.085399 C 176.995483 40.845815 181.104858 31.42394 188.865275 24.814564 C 196.625693 18.179147 207.125693 14.861439 220.375694 14.861439 C 228.755903 14.861439 236.250695 16.226022 242.86007 18.960397 C 249.495487 21.668731 254.740279 25.616648 258.599655 30.804148 C 262.453821 35.970815 264.485072 42.074982 264.693405 49.121858 C 264.693405 49.970816 264.386113 50.684358 263.766322 51.257274 C 263.14653 51.809358 262.406946 52.085399 261.557988 52.085399 L 241.552779 52.085399 C 240.219445 52.085399 239.245487 51.835399 238.625695 51.330191 C 238.026737 50.798941 237.500695 49.835399 237.042362 48.434358 C 235.709028 43.819774 233.70382 40.595815 231.01632 38.757274 C 228.349653 36.92394 224.802778 36.002065 220.375694 36.002065 C 209.766318 36.002065 204.271526 41.929149 203.880901 53.772899 C 203.787151 56.319775 203.740276 60.226025 203.740276 65.481234 C 203.740276 70.762484 203.787151 74.757276 203.880901 77.465609 C 204.271526 89.335402 209.766318 95.267694 220.375694 95.267694 C 224.714236 95.267694 228.261111 94.324985 231.01632 92.444777 C 233.792361 90.55936 235.802778 87.361443 237.042362 82.835401 C 237.406945 81.434359 237.912153 80.481234 238.557987 79.976026 C 239.224653 79.449984 240.219445 79.184359 241.552779 79.184359 L 261.557988 79.184359 C 262.406946 79.184359 263.14653 79.476026 263.766322 80.048943 C 264.386113 80.595818 264.693405 81.298943 264.693405 82.147901 C 264.485072 89.194777 262.453821 95.304152 258.599655 100.465611 C 254.740279 105.632278 249.495487 109.580194 242.86007 112.31457 C 236.250695 115.043736 228.755903 116.413528 220.375694 116.413528 Z M 272.011114 115.00207 C 271.068405 115.00207 270.245489 114.653111 269.531947 113.965611 C 268.844447 113.257278 268.500697 112.429153 268.500697 111.486445 L 268.500697 19.923939 C 268.500697 18.887481 268.818405 18.028106 269.464239 17.340606 C 270.130905 16.627064 270.979864 16.272897 272.011114 16.272897 L 338.573618 16.272897 C 339.610076 16.272897 340.479868 16.627064 341.193409 17.340606 C 341.906951 18.028106 342.261118 18.887481 342.261118 19.923939 L 342.261118 33.903107 C 342.261118 34.934357 341.906951 35.783315 341.193409 36.449982 C 340.479868 37.095815 339.610076 37.413524 338.573618 37.413524 L 294.016323 37.413524 L 294.016323 55.319775 L 335.474659 55.319775 C 336.511117 55.319775 337.380909 55.67915 338.094451 56.387483 C 338.807993 57.101025 339.162159 57.976025 339.162159 59.007275 L 339.162159 71.851026 C 339.162159 72.882276 338.807993 73.757276 338.094451 74.470817 C 337.380909 75.158317 336.511117 75.502067 335.474659 75.502067 L 294.016323 75.502067 L 294.016323 93.856235 L 339.714243 93.856235 C 340.745493 93.856235 341.604868 94.210402 342.297576 94.923944 C 343.005909 95.611444 343.360076 96.470819 343.360076 97.507277 L 343.360076 111.486445 C 343.360076 112.522903 343.005909 113.371861 342.297576 114.03332 C 341.604868 114.679153 340.745493 115.00207 339.714243 115.00207 Z M 272.011114 115.00207 " stroke="#0d0d0d" stroke-width="2.644838" stroke-opacity="1" stroke-miterlimit="4" />
  <g fill="#ffffff" fill-opacity="1">
    <g transform="translate(120.203777, 132.711109)">
      <g>
        <path d="M 3.828125 0 C 3.546875 0 3.300781 -0.0976562 3.09375 -0.296875 C 2.894531 -0.503906 2.796875 -0.75 2.796875 -1.03125 L 2.796875 -27.703125 C 2.796875 -28.003906 2.890625 -28.253906 3.078125 -28.453125 C 3.273438 -28.660156 3.523438 -28.765625 3.828125 -28.765625 L 15.125 -28.765625 C 18.738281 -28.765625 21.566406 -27.941406 23.609375 -26.296875 C 25.648438 -24.648438 26.671875 -22.335938 26.671875 -19.359375 C 26.671875 -17.441406 26.222656 -15.8125 25.328125 -14.46875 C 24.441406 -13.125 23.21875 -12.082031 21.65625 -11.34375 L 27.203125 -1.3125 C 27.285156 -1.144531 27.328125 -0.992188 27.328125 -0.859375 C 27.328125 -0.640625 27.242188 -0.441406 27.078125 -0.265625 C 26.910156 -0.0859375 26.707031 0 26.46875 0 L 20.671875 0 C 19.878906 0 19.316406 -0.367188 18.984375 -1.109375 L 14.46875 -10.03125 L 10.515625 -10.03125 L 10.515625 -1.03125 C 10.515625 -0.726562 10.410156 -0.476562 10.203125 -0.28125 C 10.003906 -0.09375 9.753906 0 9.453125 0 Z M 15.078125 -16.0625 C 16.253906 -16.0625 17.148438 -16.351562 17.765625 -16.9375 C 18.390625 -17.53125 18.703125 -18.347656 18.703125 -19.390625 C 18.703125 -20.429688 18.390625 -21.265625 17.765625 -21.890625 C 17.148438 -22.523438 16.253906 -22.84375 15.078125 -22.84375 L 10.515625 -22.84375 L 10.515625 -16.0625 Z M 15.078125 -16.0625 " />
      </g>
    </g>
  </g>
  <g fill="#ffffff" fill-opacity="1">
    <g transform="translate(145.684061, 132.711109)">
      <g>
        <path d="M 3.828125 0 C 3.546875 0 3.300781 -0.0976562 3.09375 -0.296875 C 2.894531 -0.503906 2.796875 -0.75 2.796875 -1.03125 L 2.796875 -27.703125 C 2.796875 -28.003906 2.890625 -28.253906 3.078125 -28.453125 C 3.273438 -28.660156 3.523438 -28.765625 3.828125 -28.765625 L 23.21875 -28.765625 C 23.519531 -28.765625 23.769531 -28.660156 23.96875 -28.453125 C 24.175781 -28.253906 24.28125 -28.003906 24.28125 -27.703125 L 24.28125 -23.625 C 24.28125 -23.320312 24.175781 -23.078125 23.96875 -22.890625 C 23.769531 -22.703125 23.519531 -22.609375 23.21875 -22.609375 L 10.234375 -22.609375 L 10.234375 -17.375 L 22.3125 -17.375 C 22.613281 -17.375 22.863281 -17.269531 23.0625 -17.0625 C 23.269531 -16.863281 23.375 -16.613281 23.375 -16.3125 L 23.375 -12.578125 C 23.375 -12.273438 23.269531 -12.019531 23.0625 -11.8125 C 22.863281 -11.601562 22.613281 -11.5 22.3125 -11.5 L 10.234375 -11.5 L 10.234375 -6.171875 L 23.546875 -6.171875 C 23.847656 -6.171875 24.097656 -6.066406 24.296875 -5.859375 C 24.503906 -5.648438 24.609375 -5.394531 24.609375 -5.09375 L 24.609375 -1.03125 C 24.609375 -0.726562 24.503906 -0.476562 24.296875 -0.28125 C 24.097656 -0.09375 23.847656 0 23.546875 0 Z M 3.828125 0 " />
      </g>
    </g>
  </g>
  <g fill="#ffffff" fill-opacity="1">
    <g transform="translate(168.986167, 132.711109)">
      <g>
        <path d="M 14.71875 0.40625 C 10.789062 0.40625 7.710938 -0.535156 5.484375 -2.421875 C 3.253906 -4.316406 2.070312 -7.082031 1.9375 -10.71875 C 1.90625 -11.457031 1.890625 -12.664062 1.890625 -14.34375 C 1.890625 -16.039062 1.90625 -17.273438 1.9375 -18.046875 C 2.070312 -21.597656 3.269531 -24.335938 5.53125 -26.265625 C 7.789062 -28.203125 10.851562 -29.171875 14.71875 -29.171875 C 17.15625 -29.171875 19.335938 -28.773438 21.265625 -27.984375 C 23.191406 -27.191406 24.71875 -26.039062 25.84375 -24.53125 C 26.96875 -23.019531 27.554688 -21.238281 27.609375 -19.1875 C 27.609375 -18.945312 27.519531 -18.742188 27.34375 -18.578125 C 27.164062 -18.410156 26.957031 -18.328125 26.71875 -18.328125 L 20.875 -18.328125 C 20.488281 -18.328125 20.207031 -18.398438 20.03125 -18.546875 C 19.851562 -18.703125 19.695312 -18.984375 19.5625 -19.390625 C 19.175781 -20.734375 18.59375 -21.671875 17.8125 -22.203125 C 17.03125 -22.742188 16 -23.015625 14.71875 -23.015625 C 11.613281 -23.015625 10.007812 -21.285156 9.90625 -17.828125 C 9.875 -17.085938 9.859375 -15.953125 9.859375 -14.421875 C 9.859375 -12.890625 9.875 -11.726562 9.90625 -10.9375 C 10.007812 -7.476562 11.613281 -5.75 14.71875 -5.75 C 15.976562 -5.75 17.007812 -6.019531 17.8125 -6.5625 C 18.625 -7.113281 19.207031 -8.050781 19.5625 -9.375 C 19.664062 -9.78125 19.8125 -10.054688 20 -10.203125 C 20.195312 -10.359375 20.488281 -10.4375 20.875 -10.4375 L 26.71875 -10.4375 C 26.957031 -10.4375 27.164062 -10.351562 27.34375 -10.1875 C 27.519531 -10.019531 27.609375 -9.816406 27.609375 -9.578125 C 27.554688 -7.523438 26.96875 -5.742188 25.84375 -4.234375 C 24.71875 -2.722656 23.191406 -1.570312 21.265625 -0.78125 C 19.335938 0.0078125 17.15625 0.40625 14.71875 0.40625 Z M 14.71875 0.40625 " />
      </g>
    </g>
  </g>
  <g fill="#ffffff" fill-opacity="1">
    <g transform="translate(194.918529, 132.711109)">
      <g>
        <path d="M 14.71875 0.40625 C 10.820312 0.40625 7.75 -0.535156 5.5 -2.421875 C 3.257812 -4.316406 2.070312 -7.097656 1.9375 -10.765625 C 1.90625 -11.535156 1.890625 -12.710938 1.890625 -14.296875 C 1.890625 -15.890625 1.90625 -17.082031 1.9375 -17.875 C 2.039062 -21.488281 3.234375 -24.273438 5.515625 -26.234375 C 7.804688 -28.191406 10.875 -29.171875 14.71875 -29.171875 C 18.519531 -29.171875 21.5625 -28.191406 23.84375 -26.234375 C 26.132812 -24.273438 27.335938 -21.488281 27.453125 -17.875 C 27.503906 -16.289062 27.53125 -15.097656 27.53125 -14.296875 C 27.53125 -13.472656 27.503906 -12.296875 27.453125 -10.765625 C 27.316406 -7.097656 26.128906 -4.316406 23.890625 -2.421875 C 21.660156 -0.535156 18.601562 0.40625 14.71875 0.40625 Z M 14.71875 -5.75 C 16.132812 -5.75 17.265625 -6.179688 18.109375 -7.046875 C 18.960938 -7.910156 19.421875 -9.234375 19.484375 -11.015625 C 19.535156 -12.597656 19.5625 -13.734375 19.5625 -14.421875 C 19.5625 -15.109375 19.535156 -16.21875 19.484375 -17.75 C 19.421875 -19.53125 18.960938 -20.851562 18.109375 -21.71875 C 17.265625 -22.582031 16.132812 -23.015625 14.71875 -23.015625 C 13.257812 -23.015625 12.101562 -22.582031 11.25 -21.71875 C 10.40625 -20.851562 9.957031 -19.53125 9.90625 -17.75 C 9.875 -16.988281 9.859375 -15.878906 9.859375 -14.421875 C 9.859375 -12.941406 9.875 -11.804688 9.90625 -11.015625 C 9.957031 -9.234375 10.40625 -7.910156 11.25 -7.046875 C 12.101562 -6.179688 13.257812 -5.75 14.71875 -5.75 Z M 14.71875 -5.75 " />
      </g>
    </g>
  </g>
  <g fill="#ffffff" fill-opacity="1">
    <g transform="translate(221.22077, 132.711109)">
      <g>
        <path d="M 14.828125 0.40625 C 10.859375 0.40625 7.75 -0.554688 5.5 -2.484375 C 3.257812 -4.421875 2.070312 -7.179688 1.9375 -10.765625 C 1.90625 -11.535156 1.890625 -12.78125 1.890625 -14.5 C 1.890625 -16.226562 1.90625 -17.488281 1.9375 -18.28125 C 2.039062 -21.738281 3.234375 -24.414062 5.515625 -26.3125 C 7.804688 -28.21875 10.910156 -29.171875 14.828125 -29.171875 C 17.460938 -29.171875 19.757812 -28.742188 21.71875 -27.890625 C 23.675781 -27.046875 25.164062 -25.957031 26.1875 -24.625 C 27.21875 -23.300781 27.765625 -21.941406 27.828125 -20.546875 C 27.828125 -20.296875 27.734375 -20.082031 27.546875 -19.90625 C 27.367188 -19.726562 27.160156 -19.640625 26.921875 -19.640625 L 20.546875 -19.640625 C 20.273438 -19.640625 20.0625 -19.6875 19.90625 -19.78125 C 19.757812 -19.882812 19.617188 -20.03125 19.484375 -20.21875 C 19.148438 -20.988281 18.617188 -21.644531 17.890625 -22.1875 C 17.171875 -22.738281 16.148438 -23.015625 14.828125 -23.015625 C 11.648438 -23.015625 10.007812 -21.367188 9.90625 -18.078125 C 9.875 -17.316406 9.859375 -16.140625 9.859375 -14.546875 C 9.859375 -12.953125 9.875 -11.757812 9.90625 -10.96875 C 10.007812 -7.488281 11.679688 -5.75 14.921875 -5.75 C 16.503906 -5.75 17.757812 -6.144531 18.6875 -6.9375 C 19.625 -7.738281 20.09375 -8.945312 20.09375 -10.5625 L 20.09375 -11.296875 L 16.4375 -11.296875 C 16.132812 -11.296875 15.878906 -11.398438 15.671875 -11.609375 C 15.472656 -11.816406 15.375 -12.070312 15.375 -12.375 L 15.375 -15.578125 C 15.375 -15.878906 15.472656 -16.128906 15.671875 -16.328125 C 15.878906 -16.535156 16.132812 -16.640625 16.4375 -16.640625 L 26.875 -16.640625 C 27.175781 -16.640625 27.425781 -16.535156 27.625 -16.328125 C 27.832031 -16.128906 27.9375 -15.878906 27.9375 -15.578125 L 27.9375 -10.8125 C 27.9375 -8.476562 27.394531 -6.46875 26.3125 -4.78125 C 25.238281 -3.101562 23.710938 -1.816406 21.734375 -0.921875 C 19.765625 -0.0351562 17.460938 0.40625 14.828125 0.40625 Z M 14.828125 0.40625 " />
      </g>
    </g>
  </g>
  <g fill="#ffffff" fill-opacity="1">
    <g transform="translate(247.851788, 132.711109)">
      <g>
        <path d="M 3.828125 0 C 3.546875 0 3.300781 -0.0976562 3.09375 -0.296875 C 2.894531 -0.503906 2.796875 -0.75 2.796875 -1.03125 L 2.796875 -27.703125 C 2.796875 -28.003906 2.890625 -28.253906 3.078125 -28.453125 C 3.273438 -28.660156 3.523438 -28.765625 3.828125 -28.765625 L 8.46875 -28.765625 C 9.09375 -28.765625 9.554688 -28.503906 9.859375 -27.984375 L 19.5625 -12.65625 L 19.5625 -27.703125 C 19.5625 -28.003906 19.65625 -28.253906 19.84375 -28.453125 C 20.039062 -28.660156 20.289062 -28.765625 20.59375 -28.765625 L 25.8125 -28.765625 C 26.113281 -28.765625 26.359375 -28.660156 26.546875 -28.453125 C 26.734375 -28.253906 26.828125 -28.003906 26.828125 -27.703125 L 26.828125 -1.0625 C 26.828125 -0.757812 26.734375 -0.503906 26.546875 -0.296875 C 26.359375 -0.0976562 26.113281 0 25.8125 0 L 21.15625 0 C 20.53125 0 20.066406 -0.257812 19.765625 -0.78125 L 10.109375 -15.5 L 10.109375 -1.03125 C 10.109375 -0.726562 10.003906 -0.476562 9.796875 -0.28125 C 9.597656 -0.09375 9.347656 0 9.046875 0 Z M 3.828125 0 " />
      </g>
    </g>
  </g>
  <g fill="#ffffff" fill-opacity="1">
    <g transform="translate(274.400615, 132.711109)">
      <g>
        <path d="M 3.828125 0 C 3.546875 0 3.300781 -0.0976562 3.09375 -0.296875 C 2.894531 -0.503906 2.796875 -0.75 2.796875 -1.03125 L 2.796875 -27.734375 C 2.796875 -28.035156 2.894531 -28.28125 3.09375 -28.46875 C 3.300781 -28.664062 3.546875 -28.765625 3.828125 -28.765625 L 9.703125 -28.765625 C 10.003906 -28.765625 10.25 -28.664062 10.4375 -28.46875 C 10.625 -28.28125 10.71875 -28.035156 10.71875 -27.734375 L 10.71875 -1.03125 C 10.71875 -0.75 10.625 -0.503906 10.4375 -0.296875 C 10.25 -0.0976562 10.003906 0 9.703125 0 Z M 3.828125 0 " />
      </g>
    </g>
  </g>
  <g fill="#ffffff" fill-opacity="1">
    <g transform="translate(284.839148, 132.711109)">
      <g>
        <path d="M 10.1875 0 C 9.882812 0 9.628906 -0.09375 9.421875 -0.28125 C 9.222656 -0.476562 9.125 -0.726562 9.125 -1.03125 L 9.125 -22.0625 L 1.890625 -22.0625 C 1.585938 -22.0625 1.332031 -22.15625 1.125 -22.34375 C 0.925781 -22.539062 0.828125 -22.789062 0.828125 -23.09375 L 0.828125 -27.703125 C 0.828125 -28.003906 0.925781 -28.253906 1.125 -28.453125 C 1.332031 -28.660156 1.585938 -28.765625 1.890625 -28.765625 L 24.203125 -28.765625 C 24.503906 -28.765625 24.753906 -28.660156 24.953125 -28.453125 C 25.160156 -28.253906 25.265625 -28.003906 25.265625 -27.703125 L 25.265625 -23.09375 C 25.265625 -22.789062 25.160156 -22.539062 24.953125 -22.34375 C 24.753906 -22.15625 24.503906 -22.0625 24.203125 -22.0625 L 16.96875 -22.0625 L 16.96875 -1.03125 C 16.96875 -0.726562 16.863281 -0.476562 16.65625 -0.28125 C 16.457031 -0.09375 16.207031 0 15.90625 0 Z M 10.1875 0 " />
      </g>
    </g>
  </g>
  <g fill="#ffffff" fill-opacity="1">
    <g transform="translate(307.85357, 132.711109)">
      <g>
        <path d="M 3.828125 0 C 3.546875 0 3.300781 -0.0976562 3.09375 -0.296875 C 2.894531 -0.503906 2.796875 -0.75 2.796875 -1.03125 L 2.796875 -27.734375 C 2.796875 -28.035156 2.894531 -28.28125 3.09375 -28.46875 C 3.300781 -28.664062 3.546875 -28.765625 3.828125 -28.765625 L 9.703125 -28.765625 C 10.003906 -28.765625 10.25 -28.664062 10.4375 -28.46875 C 10.625 -28.28125 10.71875 -28.035156 10.71875 -27.734375 L 10.71875 -1.03125 C 10.71875 -0.75 10.625 -0.503906 10.4375 -0.296875 C 10.25 -0.0976562 10.003906 0 9.703125 0 Z M 3.828125 0 " />
      </g>
    </g>
  </g>
  <g fill="#ffffff" fill-opacity="1">
    <g transform="translate(318.292114, 132.711109)">
      <g>
        <path d="M 14.71875 0.40625 C 10.820312 0.40625 7.75 -0.535156 5.5 -2.421875 C 3.257812 -4.316406 2.070312 -7.097656 1.9375 -10.765625 C 1.90625 -11.535156 1.890625 -12.710938 1.890625 -14.296875 C 1.890625 -15.890625 1.90625 -17.082031 1.9375 -17.875 C 2.039062 -21.488281 3.234375 -24.273438 5.515625 -26.234375 C 7.804688 -28.191406 10.875 -29.171875 14.71875 -29.171875 C 18.519531 -29.171875 21.5625 -28.191406 23.84375 -26.234375 C 26.132812 -24.273438 27.335938 -21.488281 27.453125 -17.875 C 27.503906 -16.289062 27.53125 -15.097656 27.53125 -14.296875 C 27.53125 -13.472656 27.503906 -12.296875 27.453125 -10.765625 C 27.316406 -7.097656 26.128906 -4.316406 23.890625 -2.421875 C 21.660156 -0.535156 18.601562 0.40625 14.71875 0.40625 Z M 14.71875 -5.75 C 16.132812 -5.75 17.265625 -6.179688 18.109375 -7.046875 C 18.960938 -7.910156 19.421875 -9.234375 19.484375 -11.015625 C 19.535156 -12.597656 19.5625 -13.734375 19.5625 -14.421875 C 19.5625 -15.109375 19.535156 -16.21875 19.484375 -17.75 C 19.421875 -19.53125 18.960938 -20.851562 18.109375 -21.71875 C 17.265625 -22.582031 16.132812 -23.015625 14.71875 -23.015625 C 13.257812 -23.015625 12.101562 -22.582031 11.25 -21.71875 C 10.40625 -20.851562 9.957031 -19.53125 9.90625 -17.75 C 9.875 -16.988281 9.859375 -15.878906 9.859375 -14.421875 C 9.859375 -12.941406 9.875 -11.804688 9.90625 -11.015625 C 9.957031 -9.234375 10.40625 -7.910156 11.25 -7.046875 C 12.101562 -6.179688 13.257812 -5.75 14.71875 -5.75 Z M 14.71875 -5.75 " />
      </g>
    </g>
  </g>
  <g fill="#ffffff" fill-opacity="1">
    <g transform="translate(344.594367, 132.711109)">
      <g>
        <path d="M 3.828125 0 C 3.546875 0 3.300781 -0.0976562 3.09375 -0.296875 C 2.894531 -0.503906 2.796875 -0.75 2.796875 -1.03125 L 2.796875 -27.703125 C 2.796875 -28.003906 2.890625 -28.253906 3.078125 -28.453125 C 3.273438 -28.660156 3.523438 -28.765625 3.828125 -28.765625 L 8.46875 -28.765625 C 9.09375 -28.765625 9.554688 -28.503906 9.859375 -27.984375 L 19.5625 -12.65625 L 19.5625 -27.703125 C 19.5625 -28.003906 19.65625 -28.253906 19.84375 -28.453125 C 20.039062 -28.660156 20.289062 -28.765625 20.59375 -28.765625 L 25.8125 -28.765625 C 26.113281 -28.765625 26.359375 -28.660156 26.546875 -28.453125 C 26.734375 -28.253906 26.828125 -28.003906 26.828125 -27.703125 L 26.828125 -1.0625 C 26.828125 -0.757812 26.734375 -0.503906 26.546875 -0.296875 C 26.359375 -0.0976562 26.113281 0 25.8125 0 L 21.15625 0 C 20.53125 0 20.066406 -0.257812 19.765625 -0.78125 L 10.109375 -15.5 L 10.109375 -1.03125 C 10.109375 -0.726562 10.003906 -0.476562 9.796875 -0.28125 C 9.597656 -0.09375 9.347656 0 9.046875 0 Z M 3.828125 0 " />
      </g>
    </g>
  </g>
  <path stroke-linecap="butt" transform="matrix(0.75, 0, 0, 0.75, 120.192059, 99.711111)" fill="none" stroke-linejoin="miter" d="M 5.113714 43.999771 C 4.749131 43.999771 4.426214 43.864354 4.150172 43.598729 C 3.884547 43.322687 3.749131 42.999771 3.749131 42.635187 L 3.749131 7.062269 C 3.749131 6.661227 3.874131 6.322685 4.124131 6.05706 C 4.379339 5.781018 4.712672 5.640393 5.113714 5.640393 L 20.176215 5.640393 C 25.00434 5.640393 28.775174 6.739352 31.493924 8.93206 C 34.217882 11.11956 35.577257 14.202894 35.577257 18.192478 C 35.577257 20.749769 34.983507 22.926853 33.796007 24.71852 C 32.608507 26.504978 30.978299 27.890395 28.900174 28.879978 L 36.301216 42.249771 C 36.405382 42.468521 36.457466 42.671646 36.457466 42.848729 C 36.457466 43.145604 36.348091 43.411229 36.124132 43.650812 C 35.910591 43.885187 35.639757 43.999771 35.311632 43.999771 L 27.577257 43.999771 C 26.525174 43.999771 25.775173 43.504979 25.327257 42.515396 L 19.306423 30.635187 L 14.051214 30.635187 L 14.051214 42.635187 C 14.051214 43.036229 13.910589 43.364354 13.634548 43.624771 C 13.358506 43.874771 13.019964 43.999771 12.618923 43.999771 Z M 20.124131 22.567478 C 21.69184 22.567478 22.889757 22.176853 23.707465 21.390394 C 24.540798 20.603936 24.952257 19.520603 24.952257 18.140394 C 24.952257 16.749769 24.540798 15.629977 23.707465 14.791436 C 22.889757 13.952894 21.69184 13.536227 20.124131 13.536227 L 14.051214 13.536227 L 14.051214 22.567478 Z M 39.087674 43.999771 C 38.723091 43.999771 38.400174 43.864354 38.124133 43.598729 C 37.853299 43.322687 37.723091 42.999771 37.723091 42.635187 L 37.723091 7.062269 C 37.723091 6.661227 37.848091 6.322685 38.098091 6.05706 C 38.353299 5.781018 38.686633 5.640393 39.087674 5.640393 L 64.947051 5.640393 C 65.348092 5.640393 65.686634 5.781018 65.962676 6.05706 C 66.243926 6.322685 66.379343 6.661227 66.379343 7.062269 L 66.379343 12.494561 C 66.379343 12.895602 66.243926 13.223727 65.962676 13.484144 C 65.686634 13.734144 65.348092 13.859144 64.947051 13.859144 L 47.63455 13.859144 L 47.63455 20.812269 L 63.743926 20.812269 C 64.144967 20.812269 64.483509 20.952894 64.759551 21.228936 C 65.035592 21.504978 65.176217 21.843519 65.176217 22.244561 L 65.176217 27.234145 C 65.176217 27.635186 65.035592 27.978936 64.759551 28.254978 C 64.483509 28.520603 64.144967 28.65602 63.743926 28.65602 L 47.63455 28.65602 L 47.63455 35.786229 L 65.389759 35.786229 C 65.790801 35.786229 66.124134 35.921645 66.394968 36.197687 C 66.671009 36.46852 66.806426 36.801854 66.806426 37.202895 L 66.806426 42.635187 C 66.806426 43.036229 66.671009 43.364354 66.394968 43.624771 C 66.124134 43.874771 65.790801 43.999771 65.389759 43.999771 Z M 84.67101 44.546646 C 79.45226 44.546646 75.35851 43.291437 72.379343 40.775812 C 69.400176 38.24977 67.816843 34.557062 67.639759 29.697687 C 67.598093 28.708103 67.572051 27.098728 67.572051 24.869561 C 67.572051 22.609144 67.598093 20.968519 67.639759 19.942478 C 67.816843 15.192477 69.415801 11.531019 72.431426 8.958102 C 75.447051 6.385185 79.525177 5.093518 84.67101 5.093518 C 87.926219 5.093518 90.837677 5.624768 93.410594 6.687269 C 95.988719 7.739352 98.025178 9.270602 99.525178 11.286227 C 101.01997 13.296644 101.811636 15.666436 101.889761 18.406019 C 101.889761 18.734144 101.76997 19.010186 101.530386 19.234144 C 101.290803 19.447686 101.004345 19.557061 100.671011 19.557061 L 92.900177 19.557061 C 92.384552 19.557061 92.004344 19.458103 91.764761 19.260186 C 91.530386 19.057061 91.327261 18.682061 91.150177 18.140394 C 90.629344 16.343519 89.848094 15.093519 88.806427 14.379977 C 87.769969 13.666436 86.394969 13.307061 84.67101 13.307061 C 80.551218 13.307061 78.415802 15.609144 78.26476 20.213311 C 78.228302 21.202894 78.212677 22.718519 78.212677 24.760186 C 78.212677 26.81227 78.228302 28.364353 78.26476 29.416437 C 78.415802 34.025812 80.551218 36.333104 84.67101 36.333104 C 86.35851 36.333104 87.73351 35.96852 88.806427 35.239354 C 89.884552 34.504979 90.665802 33.260187 91.150177 31.504978 C 91.290802 30.958103 91.488719 30.588312 91.738719 30.395603 C 91.993927 30.18727 92.384552 30.088312 92.900177 30.088312 L 100.671011 30.088312 C 101.004345 30.088312 101.290803 30.197687 101.530386 30.421645 C 101.76997 30.635187 101.889761 30.90602 101.889761 31.234145 C 101.811636 33.973728 101.01997 36.348729 99.525178 38.353937 C 98.025178 40.359146 95.988719 41.895604 93.410594 42.958104 C 90.837677 44.015396 87.926219 44.546646 84.67101 44.546646 Z M 119.249137 44.546646 C 114.066845 44.546646 109.978303 43.291437 106.978303 40.775812 C 103.983511 38.24977 102.39497 34.541437 102.217886 29.645603 C 102.171011 28.619561 102.150178 27.046645 102.150178 24.93727 C 102.150178 22.812269 102.171011 21.218519 102.217886 20.161228 C 102.358511 15.343519 103.95747 11.629977 107.009553 9.015394 C 110.056428 6.40081 114.139762 5.093518 119.249137 5.093518 C 124.332471 5.093518 128.400179 6.40081 131.452263 9.015394 C 134.499138 11.629977 136.098097 15.343519 136.238722 20.161228 C 136.311638 22.281019 136.348097 23.87477 136.348097 24.93727 C 136.348097 26.025811 136.311638 27.59352 136.238722 29.645603 C 136.061638 34.541437 134.483513 38.24977 131.504346 40.775812 C 128.525179 43.291437 124.441846 44.546646 119.249137 44.546646 Z M 119.249137 36.333104 C 121.150179 36.333104 122.665804 35.760187 123.796013 34.609145 C 124.931429 33.458103 125.535596 31.692478 125.618929 29.31227 C 125.686638 27.197686 125.723096 25.682061 125.723096 24.760186 C 125.723096 23.853936 125.686638 22.374769 125.618929 20.333103 C 125.535596 17.952894 124.931429 16.187269 123.796013 15.036227 C 122.665804 13.885186 121.150179 13.307061 119.249137 13.307061 C 117.311637 13.307061 115.780387 13.885186 114.64497 15.036227 C 113.514762 16.187269 112.910595 17.952894 112.837679 20.333103 C 112.806429 21.348728 112.785595 22.827894 112.785595 24.760186 C 112.785595 26.734145 112.806429 28.24977 112.837679 29.31227 C 112.910595 31.692478 113.514762 33.458103 114.64497 34.609145 C 115.780387 35.760187 117.311637 36.333104 119.249137 36.333104 Z M 154.493931 44.546646 C 149.191847 44.546646 145.046014 43.260187 142.051222 40.682062 C 139.051222 38.103937 137.467888 34.426853 137.285597 29.645603 C 137.24393 28.619561 137.217888 26.952895 137.217888 24.65602 C 137.217888 22.353936 137.24393 20.671644 137.285597 19.609144 C 137.43143 15.010186 139.02518 11.442477 142.077264 8.906019 C 145.129347 6.364352 149.264764 5.093518 154.493931 5.093518 C 157.99914 5.093518 161.056431 5.661227 163.671015 6.791435 C 166.285598 7.926852 168.275182 9.379977 169.639765 11.156019 C 171.009557 12.921644 171.733515 14.734144 171.806432 16.598727 C 171.806432 16.932061 171.68664 17.213311 171.441849 17.458103 C 171.212682 17.687269 170.931432 17.801853 170.598099 17.801853 L 162.103306 17.801853 C 161.738723 17.801853 161.452265 17.739353 161.24914 17.614353 C 161.051223 17.484144 160.863723 17.291436 160.68664 17.041436 C 160.238723 16.015394 159.53039 15.135186 158.56164 14.406019 C 157.598098 13.676852 156.238723 13.307061 154.493931 13.307061 C 150.254347 13.307061 148.061639 15.504977 147.910597 19.890394 C 147.874139 20.906019 147.858514 22.478936 147.858514 24.598728 C 147.858514 26.723728 147.874139 28.31227 147.910597 29.364353 C 148.061639 34.010187 150.290806 36.333104 154.598098 36.333104 C 156.712681 36.333104 158.389765 35.801854 159.629348 34.739354 C 160.879348 33.682062 161.504348 32.072687 161.504348 29.911228 L 161.504348 28.93727 L 156.618931 28.93727 C 156.217889 28.93727 155.879348 28.796645 155.603306 28.520603 C 155.337681 28.244561 155.202264 27.90602 155.202264 27.504978 L 155.202264 23.234145 C 155.202264 22.833103 155.337681 22.494561 155.603306 22.218519 C 155.879348 21.942478 156.217889 21.801853 156.618931 21.801853 L 170.546015 21.801853 C 170.947057 21.801853 171.28039 21.942478 171.551224 22.218519 C 171.827265 22.494561 171.962682 22.833103 171.962682 23.234145 L 171.962682 29.59352 C 171.962682 32.692478 171.243932 35.369562 169.796015 37.619562 C 168.363723 39.864354 166.327265 41.583104 163.697057 42.770604 C 161.066848 43.952896 157.99914 44.546646 154.493931 44.546646 Z M 175.311641 43.999771 C 174.947057 43.999771 174.624141 43.864354 174.348099 43.598729 C 174.077265 43.322687 173.947057 42.999771 173.947057 42.635187 L 173.947057 7.062269 C 173.947057 6.661227 174.072057 6.322685 174.322057 6.05706 C 174.577265 5.781018 174.910599 5.640393 175.311641 5.640393 L 181.504349 5.640393 C 182.342891 5.640393 182.962683 5.989352 183.363724 6.687269 L 196.301225 27.114353 L 196.301225 7.062269 C 196.301225 6.661227 196.426225 6.322685 196.676225 6.05706 C 196.936642 5.781018 197.264767 5.640393 197.665809 5.640393 L 204.624142 5.640393 C 205.025184 5.640393 205.353309 5.781018 205.613726 6.05706 C 205.874142 6.322685 205.999142 6.661227 205.999142 7.062269 L 205.999142 42.583104 C 205.999142 42.984146 205.874142 43.322687 205.613726 43.598729 C 205.353309 43.864354 205.025184 43.999771 204.624142 43.999771 L 198.431434 43.999771 C 197.592892 43.999771 196.9731 43.650812 196.56685 42.958104 L 183.697058 23.34352 L 183.697058 42.635187 C 183.697058 43.036229 183.561641 43.364354 183.285599 43.624771 C 183.009558 43.874771 182.671016 43.999771 182.269974 43.999771 Z M 210.707476 43.999771 C 210.342893 43.999771 210.019976 43.864354 209.743934 43.598729 C 209.478309 43.322687 209.342893 42.999771 209.342893 42.635187 L 209.342893 7.004977 C 209.342893 6.603935 209.478309 6.281019 209.743934 6.031019 C 210.019976 5.770602 210.342893 5.640393 210.707476 5.640393 L 218.551226 5.640393 C 218.952268 5.640393 219.275185 5.770602 219.525185 6.031019 C 219.785601 6.281019 219.91581 6.603935 219.91581 7.004977 L 219.91581 42.635187 C 219.91581 42.999771 219.785601 43.322687 219.525185 43.598729 C 219.275185 43.864354 218.952268 43.999771 218.551226 43.999771 Z M 233.124144 43.999771 C 232.723102 43.999771 232.384561 43.874771 232.103311 43.624771 C 231.827269 43.364354 231.691852 43.036229 231.691852 42.635187 L 231.691852 14.567477 L 222.046018 14.567477 C 221.644977 14.567477 221.306435 14.442477 221.030393 14.192477 C 220.75956 13.932061 220.624143 13.603936 220.624143 13.202894 L 220.624143 7.062269 C 220.624143 6.661227 220.75956 6.322685 221.030393 6.05706 C 221.306435 5.781018 221.644977 5.640393 222.046018 5.640393 L 251.811645 5.640393 C 252.212687 5.640393 252.54602 5.781018 252.816853 6.05706 C 253.092895 6.322685 253.23352 6.661227 253.23352 7.062269 L 253.23352 13.202894 C 253.23352 13.603936 253.092895 13.932061 252.816853 14.192477 C 252.54602 14.442477 252.212687 14.567477 251.811645 14.567477 L 242.165811 14.567477 L 242.165811 42.635187 C 242.165811 43.036229 242.030394 43.364354 241.754353 43.624771 C 241.473103 43.874771 241.134561 43.999771 240.733519 43.999771 Z M 255.311645 43.999771 C 254.947062 43.999771 254.624145 43.864354 254.348103 43.598729 C 254.082478 43.322687 253.947062 42.999771 253.947062 42.635187 L 253.947062 7.004977 C 253.947062 6.603935 254.082478 6.281019 254.348103 6.031019 C 254.624145 5.770602 254.947062 5.640393 255.311645 5.640393 L 263.150187 5.640393 C 263.556437 5.640393 263.879354 5.770602 264.129354 6.031019 C 264.389771 6.281019 264.519979 6.603935 264.519979 7.004977 L 264.519979 42.635187 C 264.519979 42.999771 264.389771 43.322687 264.129354 43.598729 C 263.879354 43.864354 263.556437 43.999771 263.150187 43.999771 Z M 283.749147 44.546646 C 278.566855 44.546646 274.473105 43.291437 271.478313 40.775812 C 268.483521 38.24977 266.894979 34.541437 266.717896 29.645603 C 266.671021 28.619561 266.650188 27.046645 266.650188 24.93727 C 266.650188 22.812269 266.671021 21.218519 266.717896 20.161228 C 266.858521 15.343519 268.452271 11.629977 271.504354 9.015394 C 274.556438 6.40081 278.634563 5.093518 283.749147 5.093518 C 288.83248 5.093518 292.900189 6.40081 295.947064 9.015394 C 298.999148 11.629977 300.592898 15.343519 300.738731 20.161228 C 300.811648 22.281019 300.842898 23.87477 300.842898 24.93727 C 300.842898 26.025811 300.811648 27.59352 300.738731 29.645603 C 300.561648 34.541437 298.983523 38.24977 296.004356 40.775812 C 293.025189 43.291437 288.936647 44.546646 283.749147 44.546646 Z M 283.749147 36.333104 C 285.64498 36.333104 287.160605 35.760187 288.296022 34.609145 C 289.426231 33.458103 290.035606 31.692478 290.113731 29.31227 C 290.186647 27.197686 290.223106 25.682061 290.223106 24.760186 C 290.223106 23.853936 290.186647 22.374769 290.113731 20.333103 C 290.035606 17.952894 289.426231 16.187269 288.296022 15.036227 C 287.160605 13.885186 285.64498 13.307061 283.749147 13.307061 C 281.811647 13.307061 280.275188 13.885186 279.14498 15.036227 C 278.009563 16.187269 277.410605 17.952894 277.337688 20.333103 C 277.30123 21.348728 277.285605 22.827894 277.285605 24.760186 C 277.285605 26.734145 277.30123 28.24977 277.337688 29.31227 C 277.410605 31.692478 278.009563 33.458103 279.14498 34.609145 C 280.275188 35.760187 281.811647 36.333104 283.749147 36.333104 Z M 304.301231 43.999771 C 303.936648 43.999771 303.613731 43.864354 303.33769 43.598729 C 303.072065 43.322687 302.936648 42.999771 302.936648 42.635187 L 302.936648 7.062269 C 302.936648 6.661227 303.061648 6.322685 303.311648 6.05706 C 303.566856 5.781018 303.90019 5.640393 304.301231 5.640393 L 310.49394 5.640393 C 311.332482 5.640393 311.952274 5.989352 312.353315 6.687269 L 325.290816 27.114353 L 325.290816 7.062269 C 325.290816 6.661227 325.415816 6.322685 325.665816 6.05706 C 325.926233 5.781018 326.254358 5.640393 326.655399 5.640393 L 333.613733 5.640393 C 334.014775 5.640393 334.3429 5.781018 334.603317 6.05706 C 334.863733 6.322685 334.993942 6.661227 334.993942 7.062269 L 334.993942 42.583104 C 334.993942 42.984146 334.863733 43.322687 334.603317 43.598729 C 334.3429 43.864354 334.014775 43.999771 333.613733 43.999771 L 327.421024 43.999771 C 326.582483 43.999771 325.962691 43.650812 325.561649 42.958104 L 312.686649 23.34352 L 312.686649 42.635187 C 312.686649 43.036229 312.551232 43.364354 312.27519 43.624771 C 311.999149 43.874771 311.660607 43.999771 311.259565 43.999771 Z M 304.301231 43.999771 " stroke="#0d0d0d" stroke-width="1.198794" stroke-opacity="1" stroke-miterlimit="4" />
</svg>