<svg xmlns="http://www.w3.org/2000/svg" xmlns:xlink="http://www.w3.org/1999/xlink" width="500" zoomAndPan="magnify" viewBox="0 0 375 374.999991" height="500" preserveAspectRatio="xMidYMid meet" version="1.0"><defs><clipPath id="dbbd870def"><path d="M 8.21875 8.21875 L 74 8.21875 L 74 74 L 8.21875 74 Z M 8.21875 8.21875 " clip-rule="nonzero"/></clipPath><clipPath id="0320ee45c5"><path d="M 300 8.21875 L 366.433594 8.21875 L 366.433594 74 L 300 74 Z M 300 8.21875 " clip-rule="nonzero"/></clipPath><clipPath id="d69b56aea0"><path d="M 300 300 L 366.433594 300 L 366.433594 366.433594 L 300 366.433594 Z M 300 300 " clip-rule="nonzero"/></clipPath><clipPath id="4b5f5b7a80"><path d="M 8.21875 300 L 74 300 L 74 366.433594 L 8.21875 366.433594 Z M 8.21875 300 " clip-rule="nonzero"/></clipPath><clipPath id="2b6d9964f7"><path d="M 61 8.21875 L 313 8.21875 L 313 366.433594 L 61 366.433594 Z M 61 8.21875 " clip-rule="nonzero"/></clipPath></defs><path fill="#ffffff" d="M 12.527344 12.527344 L 68.910156 12.527344 L 68.910156 0 L 6.265625 0 C 2.804688 0 0 2.804688 0 6.265625 L 0 68.910156 L 12.527344 68.910156 L 12.527344 12.527344 " fill-opacity="1" fill-rule="nonzero"/><path fill="#ffffff" d="M 363.34375 68.910156 L 375.875 68.910156 L 375.875 6.265625 C 375.875 2.804688 373.066406 0 369.609375 0 L 306.964844 0 L 306.964844 12.527344 L 363.34375 12.527344 L 363.34375 68.910156 " fill-opacity="1" fill-rule="nonzero"/><path fill="#ffffff" d="M 363.34375 363.34375 L 306.964844 363.34375 L 306.964844 375.875 L 369.609375 375.875 C 373.066406 375.875 375.875 373.066406 375.875 369.609375 L 375.875 306.964844 L 363.34375 306.964844 L 363.34375 363.34375 " fill-opacity="1" fill-rule="nonzero"/><path fill="#ffffff" d="M 6.265625 375.875 L 68.910156 375.875 L 68.910156 363.34375 L 12.527344 363.34375 L 12.527344 306.964844 L 0 306.964844 L 0 369.609375 C 0 373.066406 2.804688 375.875 6.265625 375.875 " fill-opacity="1" fill-rule="nonzero"/><path fill="#ffffff" d="M 306.964844 219.257812 C 306.964844 229.226562 301.015625 238.109375 292.234375 242.09375 L 294.371094 207.933594 L 302.980469 182.109375 C 305.308594 183.023438 306.964844 185.289062 306.964844 187.9375 Z M 257.160156 319.429688 L 217.15625 352.761719 C 211.78125 357.246094 205.453125 360.394531 198.726562 362.035156 L 230.585938 298.316406 L 278.847656 255.414062 L 277.335938 279.636719 C 276.375 295.042969 269.019531 309.546875 257.160156 319.429688 Z M 118.714844 319.429688 C 106.855469 309.546875 99.5 295.042969 98.539062 279.636719 L 97.023438 255.414062 L 145.285156 298.316406 L 177.144531 362.035156 C 170.417969 360.394531 164.09375 357.246094 158.714844 352.761719 Z M 68.910156 219.257812 L 68.910156 187.9375 C 68.910156 185.289062 70.566406 183.023438 72.894531 182.109375 L 81.503906 207.933594 L 83.636719 242.09375 C 74.855469 238.109375 68.910156 229.226562 68.910156 219.257812 Z M 269.808594 188.214844 L 278.089844 168.890625 L 281.886719 206.847656 L 280.960938 221.667969 Z M 224.53125 286.933594 L 208.871094 279.101562 L 217.199219 262.449219 L 261.046875 254.480469 Z M 158.675781 262.449219 L 167 279.101562 L 151.339844 286.933594 L 114.828125 254.480469 Z M 93.988281 206.847656 L 97.78125 168.890625 L 106.066406 188.214844 L 94.914062 221.667969 Z M 237.175781 150.347656 L 138.699219 150.347656 L 100.722656 139.5 L 101.953125 127.195312 C 104.203125 104.679688 122.964844 87.703125 145.585938 87.703125 L 230.285156 87.703125 C 252.910156 87.703125 271.671875 104.679688 273.921875 127.195312 L 275.152344 139.5 Z M 260.550781 178.007812 L 259.390625 177.109375 C 252.789062 171.972656 244.097656 169.144531 234.921875 169.144531 C 234.738281 169.144531 234.558594 169.152344 234.375 169.15625 L 241.335938 162.191406 L 270.957031 153.730469 Z M 218.613281 249.457031 L 214.238281 201.324219 C 220.21875 204.832031 227.40625 206.730469 234.921875 206.730469 C 244.097656 206.730469 252.789062 203.902344 259.390625 198.765625 L 259.964844 198.320312 L 273.675781 239.445312 Z M 195.792969 277.234375 L 187.9375 281.164062 L 180.078125 277.234375 L 173.015625 263.109375 L 202.859375 263.109375 Z M 175.40625 288.910156 L 185.132812 293.773438 C 186.898438 294.652344 188.972656 294.652344 190.738281 293.773438 L 200.464844 288.910156 L 213.65625 295.503906 L 198.375 306.964844 L 177.496094 306.964844 L 162.21875 295.503906 Z M 115.90625 198.320312 L 116.480469 198.765625 C 123.085938 203.902344 131.777344 206.730469 140.953125 206.730469 C 148.46875 206.730469 155.652344 204.832031 161.636719 201.324219 L 157.257812 249.457031 L 102.195312 239.445312 Z M 134.539062 162.191406 L 141.5 169.15625 C 141.316406 169.152344 141.136719 169.144531 140.953125 169.144531 C 131.777344 169.144531 123.085938 171.972656 116.480469 177.109375 L 115.320312 178.007812 L 104.914062 153.730469 Z M 204.136719 181.671875 L 171.738281 181.671875 L 152.941406 162.878906 L 222.929688 162.878906 Z M 174.863281 194.199219 L 201.011719 194.199219 L 206.132812 250.582031 L 169.738281 250.582031 Z M 158.9375 187.9375 L 157.730469 188.875 C 153.378906 192.257812 147.265625 194.199219 140.953125 194.199219 C 134.640625 194.199219 128.523438 192.257812 124.175781 188.875 L 122.964844 187.9375 L 124.175781 186.996094 C 128.523438 183.613281 134.640625 181.671875 140.953125 181.671875 C 147.265625 181.671875 153.378906 183.613281 157.730469 186.996094 Z M 218.144531 186.996094 C 222.492188 183.613281 228.605469 181.671875 234.921875 181.671875 C 241.234375 181.671875 247.347656 183.613281 251.699219 186.996094 L 252.90625 187.9375 L 251.699219 188.875 C 247.347656 192.257812 241.234375 194.199219 234.921875 194.199219 C 228.605469 194.199219 222.492188 192.257812 218.144531 188.875 L 216.933594 187.9375 Z M 167.820312 315.367188 L 171.648438 318.238281 C 172.734375 319.050781 174.050781 319.492188 175.40625 319.492188 L 200.464844 319.492188 C 201.820312 319.492188 203.140625 319.050781 204.226562 318.238281 L 208.050781 315.367188 L 187.9375 355.597656 Z M 187.9375 12.527344 C 250.113281 12.527344 300.699219 63.113281 300.699219 125.292969 C 300.699219 141.242188 298.140625 157.003906 293.097656 172.140625 L 291.488281 176.960938 L 286.386719 125.945312 C 283.492188 97.003906 259.375 75.175781 230.285156 75.175781 L 145.585938 75.175781 C 116.5 75.175781 92.378906 97.003906 89.488281 125.945312 L 84.386719 176.960938 L 82.777344 172.140625 C 77.730469 157.003906 75.175781 141.242188 75.175781 125.292969 C 75.175781 63.113281 125.757812 12.527344 187.9375 12.527344 Z M 306.828125 170.171875 C 311.078125 155.589844 313.226562 140.519531 313.226562 125.292969 C 313.226562 56.207031 257.019531 0 187.9375 0 C 118.851562 0 62.644531 56.207031 62.644531 125.292969 C 62.644531 140.519531 64.796875 155.589844 69.042969 170.171875 C 61.683594 172.722656 56.382812 179.71875 56.382812 187.9375 L 56.382812 219.257812 C 56.382812 236.386719 68.085938 251.363281 84.484375 255.632812 L 86.035156 280.414062 C 87.207031 299.246094 96.199219 316.976562 110.695312 329.054688 L 150.695312 362.390625 C 161.128906 371.085938 174.355469 375.875 187.9375 375.875 C 201.519531 375.875 214.746094 371.085938 225.179688 362.390625 L 265.179688 329.054688 C 279.675781 316.976562 288.664062 299.246094 289.839844 280.414062 L 291.390625 255.632812 C 307.789062 251.363281 319.492188 236.386719 319.492188 219.257812 L 319.492188 187.9375 C 319.492188 179.71875 314.191406 172.722656 306.828125 170.171875 " fill-opacity="1" fill-rule="nonzero"/><g clip-path="url(#dbbd870def)"><path fill="#0d0d0d" d="M 20.160156 20.160156 L 73.890625 20.160156 L 73.890625 8.21875 L 14.191406 8.21875 C 10.894531 8.21875 8.21875 10.894531 8.21875 14.191406 L 8.21875 73.890625 L 20.160156 73.890625 L 20.160156 20.160156 " fill-opacity="1" fill-rule="nonzero"/></g><g clip-path="url(#0320ee45c5)"><path fill="#0d0d0d" d="M 354.492188 73.890625 L 366.433594 73.890625 L 366.433594 14.191406 C 366.433594 10.894531 363.761719 8.21875 360.464844 8.21875 L 300.761719 8.21875 L 300.761719 20.160156 L 354.492188 20.160156 L 354.492188 73.890625 " fill-opacity="1" fill-rule="nonzero"/></g><g clip-path="url(#d69b56aea0)"><path fill="#0d0d0d" d="M 354.492188 354.492188 L 300.761719 354.492188 L 300.761719 366.433594 L 360.464844 366.433594 C 363.761719 366.433594 366.433594 363.761719 366.433594 360.464844 L 366.433594 300.761719 L 354.492188 300.761719 L 354.492188 354.492188 " fill-opacity="1" fill-rule="nonzero"/></g><g clip-path="url(#4b5f5b7a80)"><path fill="#0d0d0d" d="M 14.191406 366.433594 L 73.890625 366.433594 L 73.890625 354.492188 L 20.160156 354.492188 L 20.160156 300.761719 L 8.21875 300.761719 L 8.21875 360.464844 C 8.21875 363.761719 10.894531 366.433594 14.191406 366.433594 " fill-opacity="1" fill-rule="nonzero"/></g><g clip-path="url(#2b6d9964f7)"><path fill="#0d0d0d" d="M 300.761719 217.179688 C 300.761719 226.679688 295.09375 235.140625 286.726562 238.941406 L 288.757812 206.386719 L 296.964844 181.773438 C 299.183594 182.644531 300.761719 184.800781 300.761719 187.328125 Z M 253.296875 312.640625 L 215.175781 344.410156 C 210.050781 348.683594 204.023438 351.683594 197.613281 353.246094 L 227.972656 292.519531 L 273.96875 251.636719 L 272.523438 274.71875 C 271.609375 289.402344 264.597656 303.226562 253.296875 312.640625 Z M 121.355469 312.640625 C 110.054688 303.226562 103.042969 289.402344 102.128906 274.71875 L 100.683594 251.636719 L 146.679688 292.519531 L 177.042969 353.246094 C 170.632812 351.683594 164.601562 348.683594 159.476562 344.410156 Z M 73.890625 217.179688 L 73.890625 187.328125 C 73.890625 184.800781 75.46875 182.644531 77.6875 181.773438 L 85.894531 206.386719 L 87.929688 238.941406 C 79.558594 235.140625 73.890625 226.679688 73.890625 217.179688 Z M 265.351562 187.59375 L 273.246094 169.175781 L 276.863281 205.347656 L 275.980469 219.476562 Z M 222.203125 281.671875 L 207.277344 274.210938 L 215.214844 258.339844 L 257.003906 250.742188 Z M 159.441406 258.339844 L 167.375 274.210938 L 152.449219 281.671875 L 117.652344 250.742188 Z M 97.789062 205.347656 L 101.410156 169.175781 L 109.300781 187.59375 L 98.675781 219.476562 Z M 234.253906 151.503906 L 140.402344 151.503906 L 104.210938 141.164062 L 105.382812 129.4375 C 107.527344 107.980469 125.40625 91.804688 146.964844 91.804688 L 227.6875 91.804688 C 249.246094 91.804688 267.125 107.980469 269.273438 129.4375 L 270.445312 141.164062 Z M 256.53125 177.863281 L 255.425781 177.007812 C 249.132812 172.113281 240.847656 169.417969 232.105469 169.417969 C 231.929688 169.417969 231.757812 169.425781 231.582031 169.425781 L 238.214844 162.789062 L 266.445312 154.726562 Z M 216.5625 245.957031 L 212.390625 200.085938 C 218.09375 203.425781 224.941406 205.238281 232.105469 205.238281 C 240.847656 205.238281 249.132812 202.539062 255.425781 197.644531 L 255.972656 197.222656 L 269.039062 236.414062 Z M 194.816406 272.429688 L 187.328125 276.175781 L 179.835938 272.429688 L 173.105469 258.96875 L 201.546875 258.96875 Z M 175.386719 283.554688 L 184.65625 288.191406 C 186.339844 289.03125 188.316406 289.03125 189.996094 288.191406 L 199.265625 283.554688 L 211.835938 289.839844 L 197.277344 300.761719 L 177.378906 300.761719 L 162.816406 289.839844 Z M 118.679688 197.222656 L 119.230469 197.644531 C 125.523438 202.539062 133.804688 205.238281 142.550781 205.238281 C 149.710938 205.238281 156.558594 203.425781 162.261719 200.085938 L 158.089844 245.957031 L 105.613281 236.414062 Z M 136.4375 162.789062 L 143.070312 169.425781 C 142.898438 169.425781 142.726562 169.417969 142.550781 169.417969 C 133.804688 169.417969 125.523438 172.113281 119.230469 177.007812 L 118.125 177.863281 L 108.207031 154.726562 Z M 202.765625 181.355469 L 171.886719 181.355469 L 153.976562 163.445312 L 220.675781 163.445312 Z M 174.867188 193.296875 L 199.785156 193.296875 L 204.667969 247.027344 L 169.984375 247.027344 Z M 159.691406 187.328125 L 158.539062 188.222656 C 154.394531 191.445312 148.566406 193.296875 142.550781 193.296875 C 136.53125 193.296875 130.707031 191.445312 126.558594 188.222656 L 125.410156 187.328125 L 126.558594 186.433594 C 130.707031 183.207031 136.53125 181.355469 142.550781 181.355469 C 148.566406 181.355469 154.394531 183.207031 158.539062 186.433594 Z M 216.113281 186.433594 C 220.257812 183.207031 226.085938 181.355469 232.105469 181.355469 C 238.121094 181.355469 243.949219 183.207031 248.09375 186.433594 L 249.246094 187.328125 L 248.09375 188.222656 C 243.949219 191.445312 238.121094 193.296875 232.105469 193.296875 C 226.085938 193.296875 220.257812 191.445312 216.113281 188.222656 L 214.960938 187.328125 Z M 168.15625 308.773438 L 171.804688 311.507812 C 172.839844 312.28125 174.09375 312.703125 175.386719 312.703125 L 199.265625 312.703125 C 200.558594 312.703125 201.816406 312.28125 202.851562 311.507812 L 206.496094 308.773438 L 187.328125 347.113281 Z M 187.328125 20.160156 C 246.582031 20.160156 294.792969 68.367188 294.792969 127.625 C 294.792969 142.828125 292.355469 157.847656 287.546875 172.273438 L 286.011719 176.867188 L 281.152344 128.25 C 278.394531 100.664062 255.40625 79.863281 227.6875 79.863281 L 146.964844 79.863281 C 119.246094 79.863281 96.261719 100.664062 93.503906 128.25 L 88.640625 176.867188 L 87.105469 172.273438 C 82.300781 157.847656 79.863281 142.828125 79.863281 127.625 C 79.863281 68.367188 128.070312 20.160156 187.328125 20.160156 Z M 300.632812 170.398438 C 304.683594 156.5 306.730469 142.140625 306.730469 127.625 C 306.730469 61.785156 253.164062 8.21875 187.328125 8.21875 C 121.488281 8.21875 67.921875 61.785156 67.921875 127.625 C 67.921875 142.140625 69.972656 156.5 74.019531 170.398438 C 67.003906 172.828125 61.953125 179.496094 61.953125 187.328125 L 61.953125 217.179688 C 61.953125 233.5 73.105469 247.777344 88.734375 251.84375 L 90.210938 275.460938 C 91.332031 293.40625 99.898438 310.304688 113.714844 321.816406 L 151.835938 353.585938 C 161.777344 361.871094 174.382812 366.433594 187.328125 366.433594 C 200.269531 366.433594 212.875 361.871094 222.820312 353.585938 L 260.941406 321.816406 C 274.753906 310.304688 283.324219 293.40625 284.441406 275.460938 L 285.921875 251.84375 C 301.546875 247.777344 312.703125 233.5 312.703125 217.179688 L 312.703125 187.328125 C 312.703125 179.496094 307.648438 172.828125 300.632812 170.398438 " fill-opacity="1" fill-rule="nonzero"/></g></svg>